<svg width="154" height="40" viewBox="0 0 154 40" fill="none" xmlns="http://www.w3.org/2000/svg">
<path d="M0 16.2827C0 15.0254 0.591193 13.8412 1.59616 13.0856L16.5962 1.8074C18.0199 0.736888 19.9801 0.736886 21.4038 1.8074L36.4038 13.0856C37.4088 13.8412 38 15.0254 38 16.2827V36C38 38.2091 36.2091 40 34 40H4C1.79086 40 0 38.2091 0 36V16.2827Z" fill="#FEC500"/>
<path d="M27 27C27 25.9494 26.7931 24.9091 26.391 23.9385C25.989 22.9679 25.3997 22.086 24.6569 21.3431C23.914 20.6003 23.0321 20.011 22.0615 19.609C21.0909 19.2069 20.0506 19 19 19C17.9494 19 16.9091 19.2069 15.9385 19.609C14.9679 20.011 14.086 20.6003 13.3431 21.3431C12.6003 22.086 12.011 22.9679 11.609 23.9385C11.2069 24.9091 11 25.9494 11 27L27 27Z" fill="black"/>
<path d="M11 28H26.9579L29 35H9L11 28Z" fill="url(#paint0_linear_66_5430)"/>
<rect width="9" height="2" transform="matrix(-4.37114e-08 -1 -1 4.37114e-08 20 19)" fill="black"/>
<path d="M50 35.5259V10H54.5637V35.5259H50Z" fill="black"/>
<path d="M76.7636 24.0028V35.5259H72.1999V25.1697C72.1999 24.4525 72.0191 23.8022 71.6574 23.2188C71.2958 22.6232 70.8095 22.1552 70.1986 21.8149C69.6 21.4624 68.9329 21.2861 68.1973 21.2861C67.4616 21.2861 66.7882 21.4624 66.1773 21.8149C65.5787 22.1552 65.0987 22.6232 64.7371 23.2188C64.3879 23.8022 64.2134 24.4525 64.2134 25.1697V35.5259H59.6497L59.631 17.2931H64.1947L64.2134 18.9158C64.8493 18.2595 65.6099 17.7429 66.4952 17.3661C67.3805 16.9771 68.3344 16.7826 69.3569 16.7826C70.716 16.7826 71.9567 17.1108 73.0789 17.7672C74.2012 18.4114 75.0927 19.2805 75.7536 20.3745C76.4269 21.4563 76.7636 22.6657 76.7636 24.0028Z" fill="black"/>
<path d="M90.5152 21.7419H86.8867V35.5259H82.323V21.7419H79.5548V17.2931H82.323V11.568H86.8867V17.2931H90.5152V21.7419Z" fill="black"/>
<path d="M101.725 36C100.004 36 98.4327 35.5685 97.0112 34.7055C95.6022 33.8424 94.4737 32.6816 93.6258 31.223C92.7904 29.7644 92.3727 28.1538 92.3727 26.3913C92.3727 25.0664 92.6158 23.8266 93.1021 22.6718C93.5884 21.5049 94.2555 20.4839 95.1034 19.6087C95.9638 18.7214 96.9613 18.0285 98.096 17.5302C99.2307 17.0318 100.44 16.7826 101.725 16.7826C103.183 16.7826 104.518 17.0865 105.727 17.6942C106.949 18.2899 107.984 19.1103 108.832 20.1557C109.68 21.201 110.297 22.3922 110.684 23.7293C111.07 25.0664 111.157 26.4642 110.945 27.9229H97.2731C97.4476 28.6036 97.7344 29.2174 98.1334 29.7644C98.5325 30.2992 99.0375 30.7307 99.6484 31.0589C100.259 31.3749 100.951 31.539 101.725 31.5512C102.523 31.5633 103.246 31.381 103.894 31.0042C104.555 30.6152 105.104 30.0926 105.54 29.4362L110.197 30.4937C109.437 32.1103 108.302 33.4352 106.793 34.4684C105.284 35.4895 103.595 36 101.725 36ZM97.1234 24.5863H106.326C106.189 23.8569 105.895 23.2006 105.447 22.6171C105.01 22.0215 104.468 21.5475 103.819 21.195C103.171 20.8425 102.473 20.6662 101.725 20.6662C100.976 20.6662 100.284 20.8425 99.6484 21.195C99.0125 21.5353 98.4701 22.0033 98.0212 22.5989C97.5848 23.1823 97.2855 23.8448 97.1234 24.5863Z" fill="black"/>
<path d="M114.007 35.5259L113.989 17.2931H118.552L118.571 18.9158C119.207 18.2595 119.968 17.7429 120.853 17.3661C121.738 16.9771 122.692 16.7826 123.715 16.7826C124.4 16.7826 125.086 16.8799 125.772 17.0743L123.976 21.5596C123.503 21.3773 123.029 21.2861 122.555 21.2861C121.819 21.2861 121.146 21.4624 120.535 21.8149C119.936 22.1552 119.456 22.6232 119.095 23.2188C118.746 23.8022 118.571 24.4525 118.571 25.1697V35.5259H114.007Z" fill="black"/>
<path d="M127.797 17.2931H132.361V35.5259H127.797V17.2931ZM130.117 14.9411C129.443 14.9411 128.876 14.7284 128.414 14.3029C127.953 13.8654 127.722 13.3184 127.722 12.662C127.722 12.0178 127.953 11.4769 128.414 11.0393C128.876 10.6017 129.437 10.3829 130.098 10.3829C130.759 10.3829 131.314 10.6017 131.762 11.0393C132.224 11.4769 132.454 12.0178 132.454 12.662C132.454 13.3184 132.23 13.8654 131.781 14.3029C131.332 14.7284 130.777 14.9411 130.117 14.9411Z" fill="black"/>
<path d="M144.648 36C142.927 36 141.356 35.5685 139.935 34.7055C138.526 33.8424 137.397 32.6877 136.549 31.2412C135.714 29.7826 135.296 28.172 135.296 26.4095C135.296 25.0725 135.539 23.8266 136.026 22.6718C136.512 21.5049 137.179 20.4839 138.027 19.6087C138.887 18.7214 139.885 18.0285 141.02 17.5302C142.154 17.0318 143.364 16.7826 144.648 16.7826C146.369 16.7826 147.934 17.2141 149.343 18.0771C150.764 18.9402 151.893 20.101 152.728 21.5596C153.576 23.0182 154 24.6349 154 26.4095C154 27.7345 153.757 28.9743 153.271 30.129C152.784 31.2838 152.111 32.3048 151.251 33.1921C150.403 34.0673 149.411 34.7541 148.277 35.2525C147.154 35.7508 145.945 36 144.648 36ZM144.648 31.5512C145.558 31.5512 146.375 31.3142 147.098 30.8401C147.822 30.3661 148.389 29.7401 148.8 28.9621C149.224 28.1842 149.436 27.3333 149.436 26.4095C149.436 25.4614 149.218 24.5984 148.782 23.8205C148.358 23.0304 147.778 22.4044 147.042 21.9425C146.319 21.4684 145.521 21.2314 144.648 21.2314C143.75 21.2314 142.94 21.4684 142.217 21.9425C141.493 22.4165 140.92 23.0486 140.496 23.8387C140.072 24.6288 139.86 25.4857 139.86 26.4095C139.86 27.3698 140.078 28.2389 140.515 29.0168C140.951 29.7948 141.531 30.4147 142.254 30.8766C142.99 31.3263 143.788 31.5512 144.648 31.5512Z" fill="black"/>
<defs>
<linearGradient id="paint0_linear_66_5430" x1="17.8632" y1="28" x2="17.8632" y2="35" gradientUnits="userSpaceOnUse">
<stop stop-color="white"/>
<stop offset="1" stop-color="white" stop-opacity="0"/>
</linearGradient>
</defs>
</svg>
