<svg width="40" height="40" viewBox="0 0 40 40" fill="none" xmlns="http://www.w3.org/2000/svg">
<path d="M0 16.2827C0 15.0254 0.591193 13.8412 1.59616 13.0856L16.5962 1.8074C18.0199 0.736888 19.9801 0.736886 21.4038 1.8074L36.4038 13.0856C37.4088 13.8412 38 15.0254 38 16.2827V36C38 38.2091 36.2091 40 34 40H4C1.79086 40 0 38.2091 0 36V16.2827Z" fill="#FEC500"/>
<path d="M27 27C27 25.9494 26.7931 24.9091 26.391 23.9385C25.989 22.9679 25.3997 22.086 24.6569 21.3431C23.914 20.6003 23.0321 20.011 22.0615 19.609C21.0909 19.2069 20.0506 19 19 19C17.9494 19 16.9091 19.2069 15.9385 19.609C14.9679 20.011 14.086 20.6003 13.3431 21.3431C12.6003 22.086 12.011 22.9679 11.609 23.9385C11.2069 24.9091 11 25.9494 11 27L27 27Z" fill="black"/>
<path d="M11 28H26.9579L29 35H9L11 28Z" fill="url(#paint0_linear_66_5430)"/>
<rect width="9" height="2" transform="matrix(-4.37114e-08 -1 -1 4.37114e-08 20 19)" fill="black"/>
<path d="M50 35.5259V10H54.5637V35.5259H50Z" fill="black"/>
<defs>
<linearGradient id="paint0_linear_66_5430" x1="17.8632" y1="28" x2="17.8632" y2="35" gradientUnits="userSpaceOnUse">
<stop stop-color="white"/>
<stop offset="1" stop-color="white" stop-opacity="0"/>
</linearGradient>
</defs>
</svg>
