<?xml version="1.0" encoding="UTF-8" standalone="no"?>
<!-- Created with Inkscape (http://www.inkscape.org/) -->

<svg
   width="259.20859mm"
   height="259.23276mm"
   viewBox="0 0 259.20859 259.23276"
   version="1.1"
   id="svg1"
   xml:space="preserve"
   xmlns:inkscape="http://www.inkscape.org/namespaces/inkscape"
   xmlns:sodipodi="http://sodipodi.sourceforge.net/DTD/sodipodi-0.dtd"
   xmlns="http://www.w3.org/2000/svg"
   xmlns:svg="http://www.w3.org/2000/svg"><sodipodi:namedview
     id="namedview1"
     pagecolor="#ffffff"
     bordercolor="#000000"
     borderopacity="0.25"
     inkscape:showpageshadow="2"
     inkscape:pageopacity="0.0"
     inkscape:pagecheckerboard="0"
     inkscape:deskcolor="#d1d1d1"
     inkscape:document-units="mm"
     showgrid="false" /><defs
     id="defs1" /><g
     inkscape:label="Layer 1"
     inkscape:groupmode="layer"
     id="layer1"
     transform="translate(-8.1782534,-32.756381)"><path
       style="fill:#b3b3b3;stroke-width:0.264583"
       d="M 131.18838,291.81333 C 91.844329,289.70881 55.916109,270.16997 32.748219,238.27864 15.288299,214.24448 6.5689195,184.22712 8.4234495,154.53801 10.951819,114.06129 31.650909,77.798509 65.307139,54.883381 103.19458,29.087392 153.31802,25.564308 194.55609,45.798713 c 12.94673,6.352606 23.4638,13.781237 33.69806,23.802275 6.17694,6.04825 10.71328,11.318033 15.26483,17.732861 19.90351,28.051441 27.74392,62.389091 22.06507,96.635581 -5.84865,35.27052 -26.46897,66.84285 -56.65702,86.7491 -22.70578,14.97238 -50.61483,22.54565 -77.73865,21.0948 z M 86.198999,224.65788 c 0.41648,-0.21537 1.00588,-0.70768 1.30977,-1.09401 0.53407,-0.67896 0.55253,-0.98418 0.55253,-9.137 0,-4.91862 0.10632,-8.62609 0.25505,-8.89401 0.14027,-0.25269 0.50466,-1.41193 0.80976,-2.5761 0.65476,-2.4984 2.45734,-6.41955 3.99763,-8.69603 8.515931,-12.58613 26.363811,-19.51038 48.647981,-18.87343 13.85971,0.39616 24.72878,3.31493 33.34996,8.9558 3.33502,2.1821 8.07118,6.95224 9.98376,10.05537 1.70615,2.76819 3.06802,6.04262 3.80154,9.14028 0.47354,1.99975 0.57503,3.52538 0.71899,10.80784 0.15014,7.59498 0.21806,8.55628 0.65122,9.21637 0.6428,0.97957 1.94182,1.4866 3.80738,1.4861 1.90148,-5.3e-4 3.16971,-0.61317 3.83305,-1.85167 0.46746,-0.87277 0.49092,-1.59573 0.40791,-12.56771 l -0.0881,-11.64167 -0.71748,-2.32353 c -3.31875,-10.74764 -12.77667,-19.73197 -26.2472,-24.9329 -3.73106,-1.44056 -10.37054,-3.30294 -11.7751,-3.30294 -1.03615,0 -0.72,-0.49981 1.06832,-1.68896 4.29005,-2.8527 8.15528,-6.96266 10.99288,-11.68892 5.36982,-8.94387 6.57279,-20.16638 3.24563,-30.27837 -2.10104,-6.38557 -6.52921,-12.73218 -11.85835,-16.99585 -16.85972,-13.488883 -41.57323,-9.616367 -53.58708,8.39689 -4.02029,6.02792 -6.03103,12.77191 -6.03478,20.24063 -0.004,7.6685 1.94786,14.03881 6.35336,20.73699 1.68072,2.5554 7.10389,7.92606 9.66267,9.56913 2.05328,1.31847 2.42475,1.70846 1.62733,1.70846 -1.05743,0 -6.91713,1.48275 -10.41676,2.63588 -15.726471,5.18187 -26.950601,15.0287 -30.279591,26.56403 l -0.67665,2.3447 v 11.37281 c 0,12.58019 -0.0177,12.44212 1.7062,13.29292 1.05,0.5182 3.91126,0.52925 4.89816,0.0189 z M 135.06592,164.0374 c -5.71176,-1.03196 -10.37511,-3.45412 -14.68341,-7.62662 -9.74775,-9.44049 -11.25996,-24.27976 -3.63892,-35.7086 1.64007,-2.45952 5.06602,-5.89694 7.53419,-7.55942 8.11774,-5.46786 18.90642,-6.28271 27.7397,-2.09515 4.33249,2.0539 8.57568,5.737 11.24492,9.76066 1.84767,2.78521 2.94863,5.19817 3.86096,8.46204 0.63789,2.28204 0.7026,2.93998 0.7026,7.14375 0,4.20376 -0.0647,4.8617 -0.7026,7.14375 -3.01817,10.79749 -11.5559,18.61289 -22.40974,20.51373 -2.73367,0.47875 -6.89032,0.46404 -9.6477,-0.0341 z"
       id="path2"
       inkscape:export-filename="default-avatar.svg"
       inkscape:export-xdpi="96"
       inkscape:export-ydpi="96" /></g></svg>
